# xmcd CD database file
#
# Track frame offsets:
#	150
#	12397
#	23833
#	40400
#	53494
#	68444
#	80307
#	95263
#	106969
#	116651
#	135467
#	147527
#	162586
#	175517
#	187917
#	201242
#	213915
#	226408
#
# Disc length: 3199 seconds
#
# Revision: 0
# Processed by: cddbd v1.5.1PL0 Copyright (c) Steve Scherf et al.
# Submitted via: CDex 1.51
#
DISCID=ea0c7d12
DTITLE=Diverse - 18 bärenstarke Country and Western-Hits Vol. VII
DYEAR=1900
DGENRE=Country
TTITLE0=Lacy J. Dalton\Dream Baby, How long must I dream
TTITLE1=Lynn Anderson\Listen to a country song
TTITLE2=Exile\Hang on to your heart
TTITLE3=Kenny Rogers\Ruby don´t take your love to town
TTITLE4=Jeanne Pruett\It´s too late
TTITLE5=Johnny Tillotson\Talk back trembling lips
TTITLE6=Janie C. Riley\Harper Valley P.T.A.
TTITLE7=Johnny Cash\Ring of fire
TTITLE8=Dave Dudley\Cowboy boots
TTITLE9=John Denver\Rocky Montain high
TTITLE10=Tammy Wynette\Stand by your man
TTITLE11=Lynn Anderson\Desperado
TTITLE12=Faron Young\It´s four the morning
TTITLE13=Kenny Rogers\Ruben James
TTITLE14=Lynn Anderson\Rose garden
TTITLE15=Exile\Gimme one more chance
TTITLE16=Johnny Paycheck\Take this job and shove it
TTITLE17=Lacy J. Dalton\16th Avenue
EXTD=
EXTT0=
EXTT1=
EXTT2=
EXTT3=
EXTT4=
EXTT5=
EXTT6=
EXTT7=
EXTT8=
EXTT9=
EXTT10=
EXTT11=
EXTT12=
EXTT13=
EXTT14=
EXTT15=
EXTT16=
EXTT17=
PLAYORDER=
